<svg width="342" height="717" viewBox="0 0 342 717" fill="none" xmlns="http://www.w3.org/2000/svg">
<path d="M159.042 2.65051C152.331 4.59424 149.799 6.18455 143.971 12.1335C137.908 18.3181 137.79 18.6716 137.731 30.6874C137.672 36.1652 137.908 42.3497 138.143 44.3524C138.673 48.3576 138.202 48.9467 136.083 47.0618C135.2 46.2961 134.729 46.2372 133.551 46.7673C132.315 47.3563 132.08 47.8864 132.08 49.8301C132.08 52.6574 134.905 59.1954 138.379 64.3198C139.674 66.2635 141.793 69.9154 143.029 72.507L145.325 77.2191V88.9993C145.325 102.37 145.266 102.605 140.675 106.846C133.728 113.267 115.537 122.632 104.941 125.282C91.0474 128.757 82.8644 136.65 79.3911 149.844C78.3903 153.731 77.0363 168.28 76.4476 181.474C76.271 186.009 75.7412 192.901 75.2702 196.788C74.7993 200.675 74.1517 206.742 73.7985 210.335C73.0921 217.639 71.7969 227.063 70.7961 231.893C70.4429 233.66 69.9131 236.134 69.6776 237.489C69.3833 238.784 67.7938 243.025 66.1454 246.913C60.2584 260.519 54.9602 278.896 49.132 305.814C46.4829 318.006 44.6579 323.131 41.1257 328.137C37.6524 332.967 22.0519 348.046 16.6948 351.815C11.632 355.291 2.27166 361.24 1.21201 361.593C0.27009 361.946 2.62488 364.479 5.15628 365.834C7.09899 366.894 7.09899 366.894 10.278 365.009C12.0441 363.949 14.8698 361.946 16.577 360.533C18.2843 359.06 19.9326 357.882 20.227 357.882C20.8157 357.882 19.5205 362.476 16.5182 371.135C11.9263 384.505 9.04169 393.871 9.04169 395.52C9.04169 396.992 9.33604 397.405 10.6312 397.699C13.3392 398.406 13.7513 397.935 18.402 387.745C19.4028 385.566 20.4624 383.799 20.8157 383.799C21.5221 383.799 21.581 383.622 20.5802 387.097C19.6971 390.042 18.2254 399.054 17.5778 405.18C17.1069 409.42 18.2254 411.659 20.6979 411.364C22.8172 411.129 24.289 408.066 24.9954 402.588C25.7019 396.934 27.5857 390.808 30.0582 385.978C32.0598 382.208 32.7662 381.443 33.4138 382.503C33.767 383.033 31.8832 395.225 30.5292 401.469C28.822 409.244 28.822 409.892 30.176 411.129C31.2356 412.071 31.6477 412.13 32.9428 411.6C35.0622 410.599 36.5339 406.77 38.5355 397.169C40.0661 389.806 42.0088 384.211 43.3039 383.445C44.187 382.915 44.8345 385.448 45.4821 391.75C46.3652 399.996 46.9539 402.117 48.72 403.766C52.0755 406.888 53.1941 402.883 52.1344 391.456C50.3683 372.843 52.0167 363.124 59.7875 346.102C60.7883 343.982 62.6721 339.741 64.085 336.678C65.4979 333.615 71.5026 321.422 77.4484 309.583C83.4531 297.744 89.4579 285.316 90.8119 281.9C92.2248 278.484 93.5788 275.185 93.8142 274.537C96.169 268.883 99.7012 254.747 101.703 243.025C102.527 238.313 103.881 230.362 104.705 225.355C106.177 216.755 106.824 214.576 107.531 215.754C108.178 216.814 110.945 227.888 112.711 236.546C114.419 244.851 114.595 246.736 114.654 256.867L114.713 268.058L112.123 274.243C106.707 287.26 105.529 292.384 105.294 302.869C105.058 312.116 104.116 316.651 100.584 325.487C96.0513 336.737 93.7554 356.41 93.8142 384.093C93.8142 410.245 95.286 432.156 98.8182 457.719C101.055 474.094 101.644 482.693 101.703 499.833C101.762 519.153 101.173 523.688 97.8763 532.052C94.6973 540.063 94.2852 542.949 93.9909 560.207C93.6965 577.583 93.932 580.41 97.6408 609.978C101.644 641.961 102.174 655.332 99.9367 668.172C98.9359 673.886 97.4642 677.125 92.107 684.782C84.2185 696.268 82.5701 698.86 81.7459 701.569C80.7451 704.927 81.0395 705.692 84.6305 709.285C87.9273 712.525 90.3998 713.232 99.1125 713.408C103.175 713.467 107.943 713.703 109.709 713.938C112.535 714.292 113.124 714.174 114.242 713.114C116.067 711.347 117.009 709.403 118.54 703.925C119.246 701.334 120.07 698.565 120.365 697.741C121.777 693.441 122.778 684.252 122.425 678.303C121.836 668.703 123.367 650.443 125.839 636.778C127.9 625.528 129.195 618.99 131.491 608.211C134.258 594.959 136.142 585.004 138.32 572.576C139.85 563.859 139.85 563.564 139.203 551.666C138.084 531.876 138.261 528.4 140.321 522.687C142.794 516.031 145.384 505.9 146.208 499.833C146.562 497.124 146.974 494.709 147.15 494.473C147.268 494.297 147.621 487.877 147.916 480.278C148.269 472.68 148.916 463.845 149.446 460.605C151.919 444.879 154.803 427.974 157.453 413.544C159.042 404.767 160.808 395.402 161.279 392.634C162.927 383.445 164.458 379.087 166.106 379.087C167.402 379.087 168.991 383.916 169.992 391.161C170.522 395.049 171.405 400.703 171.876 403.707C172.347 406.711 173.112 412.13 173.583 415.782C174.054 419.375 175.113 427.385 175.938 433.57C177.645 446.351 178.94 460.016 179.47 471.561C179.705 475.92 180.235 483.165 180.706 487.7C181.589 496.358 183.002 502.543 189.89 528.106C192.127 536.293 192.362 537.883 192.362 543.715C192.362 549.546 192.127 550.724 190.478 555.141C188.83 559.5 188.595 560.855 188.595 565.744C188.654 578.113 190.361 589.127 195.659 610.862C197.661 618.931 198.367 623.172 198.897 629.416C199.544 636.896 201.487 648.794 203.312 656.392C205.314 664.756 205.431 666.288 204.136 670.587C202.959 674.593 203.253 679.894 205.314 692.145C207.198 703.454 208.139 706.929 210.494 711.111C212.555 714.763 214.085 716 216.558 716C218.324 715.941 218.265 715.941 216.028 715.116C213.261 714.115 213.32 714.174 210.789 709.521C208.61 705.575 207.904 702.394 205.019 684.665L203.901 676.684L204.136 673.591L205.019 670.823L206.256 665.051L204.843 659.161C203.548 653.801 202.488 648.264 200.957 639.429C200.663 637.662 199.957 632.184 199.427 627.354C198.838 621.758 197.543 614.573 195.895 607.917C191.656 590.835 190.302 582.236 189.949 570.515L189.595 560.207L191.538 554.611C194.541 545.894 194.305 541.771 189.713 524.101C181.53 492.353 181.589 492.824 180.059 467.143C178.94 448.766 178.705 446.528 174.76 417.667C170.051 383.327 169.344 379.852 166.754 378.439C163.516 376.73 162.515 380.206 155.628 418.256C149.446 452.3 148.092 462.431 146.797 484.46C145.914 499.48 143.324 512.144 138.555 524.866C137.142 528.636 137.142 530.756 138.32 556.967C138.732 566.568 137.967 571.869 130.843 606.739C122.837 645.79 121.189 658.1 121.66 673.886C122.013 686.137 121.189 691.851 116.95 705.869C114.831 713.055 115.184 712.878 104.352 712.643C91.6949 712.348 86.7499 711.524 86.7499 709.756C86.7499 709.285 86.0434 708.578 85.2192 708.225C83.0999 707.224 82.0403 704.868 82.5701 702.394C83.2177 699.508 84.5717 697.211 89.3401 690.437C95.0505 682.426 98.877 676.124 99.9367 673.179C101.232 669.468 102.056 660.633 102.056 650.502C102.056 640.43 100.643 625.116 97.994 605.266C94.9328 582.472 93.932 564.448 95.0505 550.488C95.6981 541.83 96.5223 538.06 98.8182 532.347C102.35 523.629 103.587 510.2 102.645 489.938C101.938 475.272 101.35 468.557 99.7012 456.836C95.8747 429.918 94.6384 411.364 94.815 382.267C94.9328 354.937 96.9343 336.796 100.879 327.195C104.941 317.476 105.647 314.119 106.177 303.104C106.707 291.56 108.061 285.905 112.594 275.539C117.598 264.171 117.244 250.211 111.416 226.651C108.237 213.928 107.001 211.101 105.941 213.987C105.706 214.517 104.411 221.88 102.939 230.303C98.1117 258.693 96.6989 264.583 90.6941 279.838C88.6337 285.022 77.6839 307.699 71.0316 320.48C66.1454 329.845 58.3746 346.691 55.2545 354.643C51.3691 364.656 50.0151 372.313 50.486 381.148C51.7812 403.825 51.6634 405.533 49.0143 402.883C47.8369 401.646 47.1893 398.818 45.541 386.567C44.8345 381.501 44.7757 381.384 43.5983 382.208C41.479 383.622 39.8306 387.745 37.6524 397.287C35.121 408.184 34.0614 410.599 32.0009 410.599C30.6469 410.599 30.5292 410.363 30.588 408.242C30.588 406.947 31.4711 401.115 32.4719 395.343C34.5323 383.681 34.7678 380.265 33.5904 380.265C30.8235 380.265 25.0543 393.93 23.9946 402.941C23.3471 408.832 21.7576 411.423 19.5794 410.304C18.6963 409.774 18.4609 409.008 18.4609 406.299C18.4609 400.821 21.2866 386.567 24.0535 378.026C24.7011 376.083 23.6414 376.436 22.3463 378.674C18.402 385.389 17.2835 387.568 15.8706 391.397C13.9868 396.286 11.9852 398.17 10.3957 396.58C9.39491 395.579 9.63039 394.695 18.8141 367.071C20.5213 361.887 21.8164 357.47 21.6398 357.175C20.9923 356.174 19.5794 356.822 15.9883 359.826C11.632 363.478 8.39412 365.539 7.04012 365.539C5.74498 365.539 2.56601 363.183 2.56601 362.182C2.56601 361.77 2.80149 361.416 3.03697 361.416C3.86115 361.416 17.8722 352.051 21.9931 348.753C27.7034 344.158 40.3604 330.964 43.0685 326.841C45.9531 322.306 48.3079 314.943 51.1336 301.337C55.5489 280.427 62.2011 257.868 67.1462 246.972C70.855 238.843 73.1509 227.122 75.2702 205.623C75.8001 200.44 76.3299 195.846 76.4476 195.433C76.6242 195.021 77.0363 188.247 77.3896 180.414C78.6258 152.082 80.6863 143.659 88.1627 135.472C92.0481 131.172 98.1117 127.874 105.117 126.166C113.241 124.163 126.899 117.743 135.906 111.676C140.439 108.613 144.737 104.314 145.679 101.781C146.091 100.838 146.326 95.5962 146.326 88.9993L146.385 77.7492L144.266 73.2728C143.147 70.7989 141.028 66.9114 139.556 64.6143C136.259 59.6077 135.317 57.8406 134.199 54.4833C132.315 49.1233 133.551 45.8838 136.436 48.5933C139.144 51.126 139.203 50.7137 138.791 36.9897C138.261 20.9687 138.555 19.4962 143.147 14.1951C149.093 7.30366 155.215 3.88743 163.987 2.65051C168.402 2.0026 169.462 2.06148 174.643 3.1806C186.24 5.71334 192.48 11.839 196.248 24.4438C197.837 29.8038 198.014 37.5788 196.66 42.2319C194.953 48.2987 194.599 49.7712 194.953 50.0657C195.07 50.2424 196.307 49.1822 197.543 47.7686C198.838 46.2961 200.31 45.118 200.781 45.118C202.488 45.118 201.311 51.4205 198.426 57.8996C193.54 68.7374 188.595 84.9351 188.595 89.8828C188.595 91.3553 189.007 94.1237 189.478 96.0085C191.42 103.371 194.599 107.789 201.252 112.383C202.9 113.502 207.139 116.447 210.789 118.921C214.38 121.395 219.796 124.517 222.857 125.871C235.514 131.408 244.168 136.945 249.231 142.776C252.527 146.487 256.589 155.086 257.767 160.858C258.65 164.923 258.709 167.985 258.355 182.652C257.884 202.973 258.12 204.445 263.242 216.343C267.951 227.417 268.01 227.534 268.952 236.369C270.306 249.033 271.189 251.684 276.664 259.812C282.139 268.058 288.732 283.49 291.322 294.269C292.441 298.863 295.855 307.757 299.388 315.473C300.565 317.888 302.155 321.599 302.979 323.72C303.803 325.84 305.51 330.316 306.864 333.792C310.926 344.276 312.28 345.866 320.816 350.166C326.35 352.993 340.655 363.537 340.302 364.538C339.831 365.952 335.357 365.186 329.647 362.653C321.169 358.942 320.228 359.59 323.701 367.071C330.706 382.208 336.947 396.757 336.947 398.112C336.947 398.701 336.476 399.113 335.828 399.113C334.592 399.113 330.706 393.341 326.35 385.094C321.876 376.672 321.346 381.678 325.408 394.283C328.234 403 328.705 406.358 327.292 408.242C325.879 410.186 324.584 408.714 320.993 401.057C314.929 388.098 313.104 384.388 312.751 384.388C311.574 384.388 311.279 392.398 312.221 398.347C312.574 400.35 312.869 404.237 312.928 407.006C313.045 411.482 312.928 412.248 311.809 413.308C310.573 414.545 310.573 414.545 309.454 413.426C308.63 412.601 308.1 410.716 307.571 406.711C306.158 396.286 303.979 387.392 302.567 386.214C301.036 384.918 300.33 387.274 299.447 396.816C298.74 405.18 297.68 409.715 296.562 409.715C295.679 409.715 295.031 405.356 294.501 396.227C293.972 386.096 292.912 379.97 290.439 372.607C288.909 368.131 287.673 361.946 287.202 356.999C286.554 349.4 283.611 340.035 279.843 333.438C278.842 331.671 275.957 327.548 273.426 324.191C263.595 311.115 257.884 301.455 255.235 293.327C254.234 290.382 252.822 286.259 251.997 284.197C251.173 282.136 249.937 278.484 249.231 276.128C248.524 273.772 246.052 266.88 243.638 260.813C241.283 254.747 238.928 248.326 238.34 246.559C235.396 236.841 232.865 227.063 230.098 214.458C228.862 208.922 227.743 204.268 227.508 204.033C227.331 203.797 227.096 207.567 227.037 212.338L226.978 220.996L224.329 227.77C218.913 241.612 218.324 244.675 218.795 255.984C219.266 267.234 221.444 277.07 226.86 292.208C227.861 295.153 229.627 300.159 230.745 303.399C231.864 306.638 233.041 309.819 233.336 310.467C237.751 320.833 238.104 324.426 238.399 357.588C238.634 386.626 238.163 402.293 236.574 416.489C236.103 420.671 235.043 430.507 234.219 438.282C233.395 446.057 232.158 456.129 231.57 460.664C229.686 474.624 229.038 483.223 228.979 493.943C228.92 503.426 229.097 505.252 231.158 516.62C232.394 523.394 233.63 530.462 233.924 532.229C234.16 533.996 234.69 537.177 235.043 539.297C237.045 551.549 238.634 566.863 238.634 573.401C238.634 578.231 238.222 581.411 234.572 606.739C233.277 615.809 231.393 629.062 230.392 636.189C229.391 643.316 228.155 651.798 227.684 655.038C225.035 673.179 225.918 678.009 233.807 687.963C237.633 692.734 244.403 702.747 245.169 704.691C245.581 705.81 245.345 706.576 243.873 708.696C242.873 710.169 241.342 711.641 240.518 711.995C239.635 712.348 237.869 713.114 236.515 713.703C234.749 714.527 232.747 714.822 229.038 714.822C226.271 714.822 223.858 714.999 223.74 715.234C223.563 715.529 225.977 715.705 229.097 715.647C234.807 715.588 235.278 715.47 241.577 712.466C242.048 712.23 243.344 710.935 244.403 709.521C247.406 705.633 246.817 704.102 238.045 692.322C228.096 679.01 227.272 677.302 227.272 669.174C227.272 666.229 227.566 661.988 227.979 659.75C228.332 657.452 229.862 647.145 231.275 636.778C236.632 598.198 237.457 592.485 238.457 586.418C239.929 577.288 239.635 566.922 237.457 550.783C235.691 537.236 234.454 529.225 233.453 523.688C229.745 503.898 229.686 503.014 229.98 490.704C230.274 479.454 231.04 470.972 233.041 456.541C233.512 452.948 234.337 446.351 234.807 441.816C235.278 437.281 236.044 429.977 236.574 425.618C238.693 406.652 239.282 394.047 239.399 364.95C239.458 343.923 239.282 333.968 238.752 329.315C237.574 319.538 237.692 320.009 231.04 301.337C227.096 290.264 223.975 280.663 222.68 275.715C222.327 274.419 221.856 272.535 221.562 271.592C221.267 270.591 220.62 266.527 220.031 262.463C218.383 249.976 219.501 242.319 225.153 228.123C226.742 224.118 227.625 220.761 227.861 218.11C228.037 215.931 228.391 214.164 228.626 214.164C228.803 214.164 229.274 215.401 229.686 216.932C235.043 239.55 237.398 247.443 242.166 259.459C244.109 264.289 247.229 273.006 249.172 278.778C256.295 300.218 257.119 302.044 264.713 313.353C266.656 316.239 270.306 321.305 272.778 324.603C275.251 327.902 278.253 332.26 279.431 334.381C283.022 340.919 285.906 350.991 286.907 360.827C287.202 363.596 288.379 369.014 289.556 372.902C292.559 383.092 293.383 387.333 293.383 393.223C293.383 402.235 295.149 411.482 296.856 411.482C298.505 411.482 299.8 405.18 300.742 392.457C300.977 389.63 301.389 387.333 301.684 387.333C302.861 387.333 304.863 394.99 306.629 406.475C307.217 410.186 308.042 413.367 308.571 413.956C309.984 415.605 311.809 415.252 313.045 413.19C314.223 411.188 314.164 408.36 312.869 395.049C312.339 389.806 312.574 387.745 313.575 388.098C313.928 388.216 315.812 391.986 317.814 396.521C322.936 407.889 324.407 410.422 325.938 410.186C326.644 410.068 327.704 409.126 328.293 408.066C329.352 406.24 329.352 406.004 328.469 401.881C327.94 399.584 326.586 394.754 325.467 391.161C324.348 387.627 323.407 384.388 323.407 383.975C323.407 382.385 324.407 383.386 326.291 386.861C330 393.694 334.062 399.643 335.298 400.055C336.064 400.291 336.829 400.055 337.418 399.466C338.301 398.583 338.301 398.288 337.418 395.991C336.24 392.928 333.414 386.508 327.763 373.844C325.349 368.484 323.23 363.537 322.994 362.712C322.7 361.357 322.759 361.298 324.643 361.711C325.702 361.946 328.587 363.065 330.942 364.126C335.946 366.423 339.713 366.953 340.655 365.48C340.95 364.95 341.126 364.126 340.891 363.596C340.302 362.005 326.821 352.404 320.463 349.047C312.869 345.042 311.574 343.451 307.806 333.615C306.275 329.61 302.861 321.481 300.271 315.473C295.031 303.34 293.324 298.569 291.558 291.501C289.144 281.841 282.551 266.998 276.723 258.34C272.131 251.507 271.012 247.796 269.835 236.252C269.07 228.771 267.598 223.176 264.831 217.698C261.946 211.926 259.768 204.975 259.297 200.145C259.062 197.789 259.121 189.661 259.474 182.063C260.004 168.987 259.945 167.927 258.767 161.801C255.647 145.898 248.171 137.18 229.921 128.227C226.154 126.342 222.092 124.458 220.973 124.045C218.265 122.985 199.544 110.38 196.66 107.612C193.775 104.903 191.185 99.4837 190.008 93.8292C189.183 89.765 189.183 88.9993 190.066 85.3474C191.95 77.5725 195.188 67.9716 198.661 59.5488C202.547 50.2424 203.489 45.8838 201.899 44.588C201.016 43.8812 200.663 43.94 199.191 45.0002C198.249 45.7071 197.307 46.2961 197.072 46.2961C196.66 46.2961 196.954 44.5291 198.014 40.406C198.426 38.8157 198.603 35.5172 198.426 32.1599C197.837 20.3208 191.479 9.24741 182.825 4.82983C179.293 3.0039 170.757 0.94232 167.225 1.00122C165.871 1.00122 162.162 1.767 159.042 2.65051Z" fill="#463C32" stroke="#463C32" stroke-width="2"/>
</svg>
